<?xml version="1.0" standalone="no"?>
<!DOCTYPE svg PUBLIC "-//W3C//DTD SVG 1.1//EN" "http://www.w3.org/Graphics/SVG/1.1/DTD/svg11.dtd" >
<svg xmlns="http://www.w3.org/2000/svg">
<metadata>Generated by IcoMoon</metadata>
<defs>
<font id="icomoon" horiz-adv-x="1024">
<font-face units-per-em="1024" ascent="960" descent="-64" />
<missing-glyph horiz-adv-x="1024" />
<glyph unicode="&#x20;" horiz-adv-x="512" d="" />
<glyph unicode="&#xe900;" glyph-name="Back-Icon" d="M42.666 405.326c-23.566 23.566-23.566 61.774 0 85.34v0l426.664 426.664c23.566 23.566 61.774 23.566 85.34 0s23.566-61.774 0-85.34v0l-384.030-384.030 383.994-383.994c23.566-23.566 23.566-61.774 0-85.34s-61.774-23.566-85.34 0v0z" />
<glyph unicode="&#xe901;" glyph-name="back" horiz-adv-x="1111" d="M155.89 285.548c-1.844 4.847-2.911 10.452-2.911 16.306 0 26.025 21.098 47.123 47.123 47.123 20.643 0 38.186-13.274 44.559-31.752l0.099-0.331c53.177-147.931 192.255-251.815 355.598-251.815 208.202 0 376.984 168.781 376.984 376.984s-168.781 376.984-376.984 376.984c-104.494 0-199.057-42.514-267.338-111.188l-0.017-0.018-132.014-123.846h163.779c26.025 0 47.123-21.098 47.123-47.123s-21.098-47.123-47.123-47.123h-282.11c-0.229-0.004-0.499-0.006-0.769-0.006-2.042 0-4.054 0.129-6.027 0.38l0.235-0.024h-3.351q-2.374 1.047-4.538 1.675v0h-1.396c-18.72 6.497-31.919 23.984-31.919 44.553 0 0.413 0.005 0.824 0.016 1.235l-0.001-0.061v282.11c0 26.025 21.098 47.123 47.123 47.123s47.123-21.098 47.123-47.123v0-173.831l138.297 129.92c85.239 85.059 202.9 137.657 332.846 137.657 260.253 0 471.23-210.977 471.23-471.23 0-250.718-195.801-455.705-442.832-470.388l-1.294-0.061q-13.962-0.768-27.227-0.768c-204.055 0.098-377.777 129.86-443.248 311.357l-1.035 3.285z" />
<glyph unicode="&#xe903;" glyph-name="Chat" d="M684.032 437.427c0 30.75 24.927 55.677 55.677 55.677s55.677-24.927 55.677-55.677c0-30.75-24.927-55.677-55.677-55.677v0c-30.75 0-55.677 24.927-55.677 55.677v0zM467.706 437.427c0.054 30.682 24.94 55.534 55.629 55.534 30.723 0 55.629-24.906 55.629-55.629s-24.906-55.629-55.629-55.629v0c-30.729 0.027-55.629 24.944-55.629 55.677 0 0.017 0 0.033 0 0.050v-0.003zM251.332 437.427c0.027 30.729 24.944 55.629 55.677 55.629 30.75 0 55.677-24.927 55.677-55.677s-24.927-55.677-55.677-55.677c-0.017 0-0.033 0-0.050 0h0.003c-30.729 0.027-55.629 24.944-55.629 55.677 0 0.017 0 0.033 0 0.050v-0.003z" />
<glyph unicode="&#xe904;" glyph-name="chcevron-down" d="M42.678 405.25c-0.020 0.020-0.043 0.043-0.066 0.066-23.554 23.554-23.554 61.741 0 85.295 0 0 0 0 0 0v0l426.674 426.674c23.554 23.554 61.741 23.554 85.295 0s23.554-61.741 0-85.295v0l-383.96-383.96 384.093-384.093c23.554-23.554 23.554-61.741 0-85.295s-61.741-23.554-85.295 0v0z" />
<glyph unicode="&#xe905;" d="M512.004 960c282.764-0.005 511.988-229.231 511.988-511.996 0-282.768-229.228-511.996-511.996-511.996-282.765 0-511.991 229.224-511.996 511.987v0c-0.001 0.435-0.002 0.95-0.002 1.466 0 281.453 227.749 509.712 509.008 510.538h0.079z" />
<glyph unicode="&#xe906;" d="M795.639 589.073l-363.633-363.617-203.636 202.18 82.91 81.454 120.726-119.271 280.724 280.724z" />
<glyph unicode="&#xe907;" glyph-name="check-2" horiz-adv-x="1418" d="M134.459 464.305c-14.151 13.681-33.452 22.111-54.722 22.111-43.503 0-78.769-35.266-78.769-78.769 0-21.27 8.431-40.571 22.133-54.744l-0.021 0.022 393.846-393.846c14.254-14.249 33.943-23.063 55.69-23.063s41.436 8.813 55.69 23.063l866.461 866.461c13.681 14.151 22.111 33.452 22.111 54.722 0 43.503-35.266 78.769-78.769 78.769-21.27 0-40.571-8.431-54.744-22.133l0.022 0.021-810.772-810.772zM-236.308 1432.615h1890.462v-1890.462h-1890.462v1890.462z" />
<glyph unicode="&#xe90c;" glyph-name="ellipsis-v" d="M559.232 757.333c0-41.237-33.429-74.667-74.667-74.667s-74.667 33.429-74.667 74.667c0 41.237 33.429 74.667 74.667 74.667s74.667-33.429 74.667-74.667zM559.232 458.667c0-41.237-33.429-74.667-74.667-74.667s-74.667 33.429-74.667 74.667c0 41.237 33.429 74.667 74.667 74.667s74.667-33.429 74.667-74.667zM559.232 160c0-41.237-33.429-74.667-74.667-74.667s-74.667 33.429-74.667 74.667c0 41.237 33.429 74.667 74.667 74.667s74.667-33.429 74.667-74.667z" />
<glyph unicode="&#xe90d;" horiz-adv-x="1489" d="M1396.337-64h-1303.228c-51.423 0-93.109 41.686-93.109 93.109v0 837.782c0 51.423 41.686 93.109 93.109 93.109v0h1303.228c51.38-0.056 93.010-41.721 93.010-93.109v0-837.782c0-51.388-41.63-93.053-93.005-93.109h-0.005z" />
<glyph unicode="&#xe90e;" horiz-adv-x="1489" d="M1396.337-64h-1303.228c-0.31-0.004-0.675-0.006-1.042-0.006-50.851 0-92.073 41.223-92.073 92.073 0 0.366 0.002 0.732 0.006 1.097l-0.001-0.056c0.003 15.342 7.419 28.951 18.861 37.441l0.125 0.089 698.168 465.446c7.609 5.636 17.181 9.022 27.543 9.022s19.934-3.386 27.669-9.111l-0.126 0.089 698.168-465.446c11.567-8.579 18.983-22.188 18.987-37.529v-0.001c0.004-0.309 0.006-0.675 0.006-1.041 0-50.851-41.223-92.073-92.073-92.073-0.349 0-0.697 0.002-1.045 0.006h0.053z" />
<glyph unicode="&#xe90f;" horiz-adv-x="1489" d="M1396.337 960h-1303.228c-0.31 0.004-0.675 0.006-1.042 0.006-50.851 0-92.073-41.223-92.073-92.073 0-0.366 0.002-0.732 0.006-1.097l-0.001 0.056c0.003-15.342 7.419-28.951 18.861-37.441l0.125-0.089 698.563-501.446c7.526-5.45 16.943-8.718 27.124-8.718s19.598 3.268 27.26 8.812l-0.136-0.094 698.563 501.496c11.623 8.546 19.083 22.166 19.085 37.529v0c0.003 0.295 0.005 0.643 0.005 0.992 0 50.851-41.223 92.073-92.073 92.073-0.366 0-0.732-0.002-1.097-0.006l0.056 0.001z" />
<glyph unicode="&#xe910;" glyph-name="facebook" horiz-adv-x="464" d="M310.32-64h-186.154v511.81h-124.166v176.565h124.166v103.884c0 144.22 38.053 231.741 202.365 231.741h136.99v-176.565h-85.581c-64.081 0-67.163-24.734-67.163-70.778l-0.228-88.282h153.695l-18.151-176.565h-135.658z" />
<glyph unicode="&#xe912;" glyph-name="google-plus" d="M539.282 375.391l-48.017 37.308c-14.618 12.118-34.639 28.135-34.639 57.434 0 29.427 20.010 48.134 37.361 65.464 55.92 44.034 111.829 90.897 111.829 189.644 0 101.543-63.885 154.963-94.52 180.311h82.571l86.66 54.447h-262.544c-72.042 0-175.873-17.033-251.887-79.796-57.286-49.426-85.23-117.57-85.23-178.934 0-104.138 79.955-209.717 221.179-209.717 13.336 0 27.923 1.314 42.604 2.669-6.599-16.048-13.262-29.416-13.262-52.085 0-41.365 21.249-66.724 39.977-90.749-59.987-4.131-171.996-10.784-254.578-61.534-78.641-46.767-102.581-114.826-102.581-162.886 0-98.874 93.217-190.968 286.484-190.968 229.187 0 350.507 126.807 350.507 252.353 0.021 92.232-53.261 137.622-111.913 187.038zM364.722 528.966c-114.657 0-166.594 148.215-166.594 237.64 0 34.829 6.599 70.781 29.268 98.863 21.387 26.736 58.61 44.087 93.365 44.087 110.526 0 167.854-149.55 167.854-245.722 0-24.056-2.659-66.693-33.304-97.528-21.429-21.408-57.297-37.34-90.59-37.34zM366.036-8.049c-142.58 0-234.515 68.197-234.515 163.045 0 94.795 85.251 126.881 114.572 137.485 55.941 18.823 127.919 21.44 139.932 21.44 13.326 0 19.989 0 30.603-1.335 101.352-72.137 145.344-108.079 145.344-176.371 0.011-82.677-67.974-144.264-195.936-144.264zM875.806 531v133.523h-65.93v-133.523h-133.322v-66.671h133.322v-134.36h65.93v134.36h133.989v66.671z" />
<glyph unicode="&#xe914;" glyph-name="instagram" d="M1020.911 659.107c-0.933 44.879-9.587 87.463-24.681 126.858l0.867-2.575c-13.587 35.49-33.683 65.743-59.047 90.649l-0.037 0.037c-24.927 25.395-55.157 45.49-88.906 58.503l-1.716 0.582c-36.825 14.208-79.412 22.84-123.897 23.743l-0.386 0.006c-54.643 2.51-72.085 3.089-211.107 3.089s-156.528-0.579-211.107-3.089c-44.88-0.934-87.463-9.589-126.859-24.681l2.576 0.867c-35.49-13.587-65.743-33.683-90.649-59.047l-0.037-0.037c-25.395-24.927-45.49-55.157-58.503-88.906l-0.582-1.716c-14.207-36.824-22.839-79.411-23.743-123.895l-0.006-0.388c-2.51-54.579-3.089-72.021-3.089-211.107s0.579-156.528 3.089-211.107c0.932-44.879 9.586-87.463 24.681-126.858l-0.867 2.575c13.587-35.49 33.683-65.743 59.047-90.649l0.037-0.037c24.944-25.401 55.196-45.498 88.97-58.503l1.717-0.581c36.821-14.231 79.405-22.885 123.889-23.808l0.394-0.006c54.579-2.51 72.021-3.089 211.107-3.089s156.464 0.579 211.107 3.089c44.879 0.93 87.462 9.585 126.857 24.681l-2.574-0.867c68.959 27.182 122.524 80.747 149.088 147.933l0.618 1.773c14.229 36.82 22.884 79.404 23.807 123.888l0.006 0.395c2.51 54.579 3.089 72.021 3.089 211.107s-0.579 156.464-3.089 211.107zM928.744 241.076c-0.419-34.241-6.851-66.856-18.283-97.010l0.648 1.947c-17.603-44.795-52.392-79.584-96.037-96.787l-1.15-0.399c-28.207-10.784-60.822-17.216-94.884-17.633l-0.179-0.002c-54-2.446-70.155-2.961-206.924-2.961s-152.924 0.515-206.924 2.961c-34.241 0.419-66.856 6.851-97.010 18.283l1.947-0.648c-23.112 8.755-42.783 21.91-58.845 38.569l-0.046 0.048c-16.709 16.107-29.865 35.779-38.253 57.803l-0.364 1.089c-10.608 28.14-16.882 60.662-17.184 94.61l-0.001 0.131c-2.446 54-2.961 70.155-2.961 206.924s0.515 152.924 2.961 206.924c0.419 34.241 6.851 66.856 18.283 97.010l-0.648-1.947c8.757 23.111 21.911 42.782 38.569 58.845l0.048 0.046c16.105 16.711 35.778 29.867 57.803 38.253l1.088 0.364c28.116 10.62 60.611 16.916 94.533 17.248l0.143 0.001c54 2.446 70.155 2.961 206.924 2.961v0c136.705 0 152.924-0.515 206.924-2.961 34.241-0.419 66.856-6.851 97.010-18.283l-1.947 0.648c23.11-8.759 42.781-21.913 58.845-38.569l0.046-0.048c16.711-16.105 29.867-35.778 38.253-57.803l0.364-1.088c10.62-28.116 16.916-60.611 17.248-94.533l0.001-0.143c2.446-54 2.961-70.155 2.961-206.924s-0.515-152.924-2.961-206.924zM512 710.919c-145.206 0-262.919-117.713-262.919-262.919s117.713-262.919 262.919-262.919c145.206 0 262.919 117.713 262.919 262.919v0c0 145.206-117.713 262.919-262.919 262.919v0zM512 277.312c-94.268 0-170.688 76.42-170.688 170.688s76.42 170.688 170.688 170.688c94.268 0 170.688-76.42 170.688-170.688v0c0-94.268-76.42-170.688-170.688-170.688v0zM846.747 721.281c0-33.947-27.519-61.466-61.466-61.466s-61.466 27.519-61.466 61.466c0 33.947 27.519 61.466 61.466 61.466v0c33.947 0 61.466-27.519 61.466-61.466v0z" />
<glyph unicode="&#xe915;" glyph-name="linkedin" horiz-adv-x="1038" d="M1038.101 332.106v-396.106h-222.577v369.572c0 92.867-32.068 156.168-112.615 156.168-52.958-0.935-97.642-35.333-113.876-82.907l-0.256-0.862c-4.888-14.846-7.707-31.933-7.707-49.679 0-2.258 0.046-4.505 0.136-6.74l-0.010 0.32v-385.872h-222.35s2.957 625.809 0 690.627h222.388v-97.795c-0.303-0.758-0.948-1.516-1.251-2.274h1.251v2.274c38.179 68.588 110.245 114.223 192.969 114.223 2.654 0 5.297-0.047 7.928-0.14l-0.381 0.011c146.427 0 256.351-98.553 256.351-310.82zM126.034 959.81c-1.923 0.11-4.172 0.173-6.436 0.173-66.006 0-119.514-53.508-119.514-119.514s53.508-119.514 119.514-119.514c1.263 0 2.522 0.020 3.776 0.059l-0.183-0.005h1.402c1.986-0.118 4.308-0.185 6.646-0.185 66.027 0 119.552 53.525 119.552 119.552s-53.525 119.552-119.552 119.552c-1.871 0-3.731-0.043-5.581-0.128l0.262 0.010zM13.305-64h222.426v690.627h-222.426z" />
<glyph unicode="&#xe916;" horiz-adv-x="790" d="M395.151 960c-218.123-0.248-394.882-176.994-395.151-395.089v-0.026c2.031-87.082 24.331-168.512 62.338-240.353l-1.419 2.941c38.732-75.748 82.836-141.065 133.741-200.375l-1.125 1.343c58.414-69.67 121.412-131.709 189.828-187.345l2.541-2.002c2.495-1.92 5.664-3.078 9.103-3.078s6.608 1.157 9.139 3.104l-0.035-0.026c70.957 57.636 133.955 119.676 190.621 187.207l1.747 2.139c49.777 57.967 93.881 123.284 129.979 193.397l2.637 5.635c36.588 68.899 58.888 150.329 60.907 236.775l0.012 0.636c-0.269 218.018-176.862 394.701-394.821 395.115h-0.039zM395.151 701.469c75.454 0 136.621-61.167 136.621-136.621s-61.167-136.621-136.621-136.621c-75.454 0-136.621 61.167-136.621 136.621v0c0.083 75.42 61.201 136.538 136.613 136.621h0.008z" />
<glyph unicode="&#xe917;" horiz-adv-x="790" d="M395.151 960c-15.407-0.011-30.594-0.897-45.53-2.611l1.835 0.171c198.405-23.067 350.999-190.009 351.274-392.647v-0.028c-2.031-87.082-24.331-168.512-62.338-240.353l1.419 2.941c-38.732-75.749-82.836-141.065-133.741-200.375l1.126 1.343c-49.159-58.249-100.732-110.699-156.008-159.019l-1.696-1.452c20.355-17.66 33.281-27.71 34.701-28.803 2.495-1.92 5.664-3.078 9.103-3.078s6.608 1.157 9.139 3.104l-0.035-0.026c70.957 57.636 133.955 119.676 190.621 187.207l1.747 2.139c49.777 57.967 93.881 123.284 129.979 193.397l2.637 5.635c36.587 68.899 58.886 150.329 60.907 236.775l0.012 0.637c-0.311 218.089-177.054 394.794-395.128 395.042h-0.024z" />
<glyph unicode="&#xe918;" glyph-name="message-icon" horiz-adv-x="1075" d="M312.365 467.285c0.596-0.017 1.298-0.026 2.002-0.026 42.603 0 77.139 34.536 77.139 77.139s-34.536 77.139-77.139 77.139c-42.603 0-77.139-34.536-77.139-77.139 0-0.025 0-0.050 0-0.076v0.004c-0.004-0.278-0.006-0.605-0.006-0.934 0-41.695 33.526-75.56 75.092-76.107l0.052-0.001zM537.681 467.285c0.611-0.017 1.329-0.027 2.051-0.027 42.603 0 77.139 34.536 77.139 77.139s-34.536 77.139-77.139 77.139c-42.603 0-77.139-34.536-77.139-77.139 0-0.025 0-0.050 0-0.074v0.004c-0.004-0.278-0.006-0.606-0.006-0.934 0-41.678 33.499-75.532 75.040-76.107l0.054-0.001zM762.996 467.285c0.611-0.017 1.329-0.027 2.051-0.027 42.603 0 77.139 34.536 77.139 77.139s-34.536 77.139-77.139 77.139c-42.603 0-77.139-34.536-77.139-77.139 0-0.025 0-0.050 0-0.074v0.004c-0.004-0.278-0.006-0.606-0.006-0.934 0-41.678 33.499-75.532 75.040-76.107l0.054-0.001z" />
<glyph unicode="&#xe91b;" glyph-name="pinterest" horiz-adv-x="798" d="M144.738 367.803c49.764 87.662-15.925 106.802-26.222 170.348-42.108 259.158 299.697 436.013 478.505 254.947 123.875-125.56 42.3-511.043-157.332-470.849-191.402 37.898 93.634 345.289-58.952 405.389-124.067 48.999-189.947-149.676-131.11-248.44-34.452-169.965-108.793-330.36-78.743-543.199 97.5 70.436 130.421 205.948 157.371 346.82 49.037-29.859 75.221-60.483 137.809-65.459 230.448-17.992 359.261 229.682 327.68 457.833-27.945 202.503-230.142 305.477-445.852 281.361-170.501-19.14-340.504-156.567-347.548-353.328-4.249-119.818 29.897-210.159 144.394-235.424z" />
<glyph unicode="&#xe91d;" glyph-name="send" d="M905.344 448l116.16 430.080c2.053 5.855 3.239 12.605 3.239 19.632 0 33.756-27.364 61.12-61.12 61.12-8.956 0-17.463-1.926-25.128-5.388l0.385 0.156-904.32-448c-20.738-11.38-34.562-33.067-34.562-57.984s13.824-46.604 34.221-57.812l0.342-0.172 904.256-448c7.185-3.185 15.566-5.039 24.38-5.039 33.968 0 61.504 27.536 61.504 61.504 0 7.072-1.194 13.866-3.391 20.19l0.131-0.432z" />
<glyph unicode="&#xe91f;" glyph-name="star" horiz-adv-x="1075" d="M835.244 331.901c-10.373-10.074-16.811-24.153-16.811-39.736 0-3.215 0.274-6.366 0.8-9.431l-0.047 0.328 44.707-247.588c0.544-2.888 0.855-6.211 0.855-9.607 0-18.489-9.229-34.822-23.331-44.644l-0.178-0.117c-9.023-6.642-20.356-10.631-32.622-10.631-9.627 0-18.679 2.457-26.566 6.778l0.288-0.145-222.803 116.265c-7.292 3.963-15.926 6.399-25.105 6.661l-0.081 0.002h-13.792c-4.992-0.794-9.475-2.38-13.534-4.637l0.208 0.106-223.003-116.865c-7.691-3.953-16.781-6.271-26.413-6.271-3.283 0-6.504 0.269-9.64 0.787l0.341-0.047c-26.085 5.067-45.509 27.728-45.509 54.926 0 3.191 0.267 6.32 0.781 9.365l-0.046-0.329 44.774 247.588c0.455 2.69 0.715 5.788 0.715 8.947 0 15.687-6.416 29.876-16.766 40.085l-0.006 0.006-181.76 176.363c-10.112 9.871-16.383 23.638-16.383 38.87 0 6.437 1.12 12.613 3.176 18.343l-0.119-0.379c6.815 19.734 23.717 34.306 44.382 37.668l0.326 0.044 249.92 36.312c19.464 2.070 35.775 13.846 44.161 30.331l0.147 0.318 110.202 225.934c2.747 5.132 6.099 9.526 10.043 13.308l0.018 0.017 4.531 3.798c2.321 2.597 5 4.809 7.973 6.577l0.155 0.086 5.463 1.999 8.528 3.398h21.188c19.357-2.033 35.62-13.608 44.16-29.873l0.148-0.309 111.735-224.935c8.069-16.191 23.317-27.763 41.46-30.608l0.316-0.041 250.12-36.312c21.375-3.148 38.689-17.774 45.649-37.313l0.124-0.398c1.71-5.063 2.698-10.894 2.698-16.955 0-15.717-6.636-29.883-17.26-39.851l-0.029-0.027z" />
<glyph unicode="&#xe920;" glyph-name="twitter" horiz-adv-x="1213" d="M1179.070 941.284c-45.414-28.473-98.341-50.225-154.876-62.209l-3.196-0.567c-44.752 50.012-109.455 81.375-181.485 81.493h-0.021c-137.966-2.604-248.811-115.059-248.811-253.404 0-1.66 0.016-3.316 0.048-4.969l-0.004 0.248c0-0.053 0-0.116 0-0.179 0-20.941 2.358-41.331 6.824-60.92l-0.351 1.831c-208.938 12.346-391.705 114.772-511.488 268.645l-1.175 1.568c-21.171-37.265-33.65-81.864-33.65-129.376 0-88.495 43.29-166.878 109.849-215.129l0.771-0.532c-41.68 1.699-80.266 13.498-113.825 32.995l1.178-0.632v-3.158c-0.014-1.002-0.022-2.184-0.022-3.369 0-121.45 84.412-223.185 197.768-249.735l1.735-0.343c-19.588-5.693-42.088-8.968-65.353-8.968-0.054 0-0.108 0-0.162 0h0.009c-0.185-0.001-0.405-0.001-0.624-0.001-16.343 0-32.288 1.704-47.666 4.944l1.5-0.265c30.616-102.322 122.358-176.246 231.88-179.742l0.394-0.010c-83.302-68.88-191.187-110.691-308.834-110.775h-0.019c-20.969 0.012-41.622 1.315-61.897 3.834l2.434-0.247c107.059-72.729 239.135-116.158 381.349-116.273h0.029c457.49 0 707.66 394.245 707.66 735.812l-0.819 33.533c49.155 37.007 90.456 81.313 123.096 131.746l1.21 1.995c-41.529-19.765-89.723-34.166-140.384-40.689l-2.404-0.253c51.758 33.028 90.396 82.68 108.685 141.31l0.491 1.828z" />
<glyph unicode="&#xe921;" glyph-name="unlock" horiz-adv-x="870" d="M651.827-64h-433.306c-0.629-0.007-1.372-0.010-2.115-0.010-118.594 0-214.909 95.39-216.405 213.629l-0.001 0.141v252.877c0 0.116 0 0.253 0 0.39 0 48.676 16.822 93.424 44.969 128.746l-0.322-0.419c28.378 35.537 66.831 61.94 111.018 74.969l1.571 0.397-5.683-0.717v78.182c4.579 153.303 129.95 275.834 283.939 275.834 121.595 0 225.346-76.401 265.865-183.818l0.647-1.956c1.629-4.352 2.572-9.382 2.572-14.631 0-7.105-1.727-13.806-4.784-19.707l0.113 0.239c-5.294-10.674-14.528-18.724-25.753-22.34l-0.308-0.086c-4.436-1.59-9.553-2.509-14.885-2.509-0.005 0-0.010 0-0.014 0h0.001c-19.688 0.067-36.495 12.335-43.257 29.635l-0.109 0.317c-28.026 73.912-98.242 125.498-180.507 125.498-103.867 0-188.527-82.236-192.423-185.15l-0.011-0.354v-68.659h409.242c0.628 0.007 1.371 0.010 2.114 0.010 118.63 0 214.968-95.448 216.406-213.737l0.001-0.136v-252.826c-1.468-118.403-97.794-213.822-216.407-213.822-0.762 0-1.522 0.004-2.282 0.012l0.116-0.001zM435.2 377.242c-0.138 0.002-0.301 0.002-0.464 0.002-24.563 0-44.509-19.768-44.797-44.263v-113.025c0-25.138 20.379-45.517 45.517-45.517s45.517 20.379 45.517 45.517v0 112.998c-0.457 24.559-20.474 44.293-45.1 44.293-0.237 0-0.473-0.002-0.709-0.005h0.036z" />
<glyph unicode="&#xe922;" glyph-name="user" horiz-adv-x="819" d="M0 111.36c0 139.366 188.723 174.080 409.6 174.080 222.157 0 409.6-35.84 409.6-175.309s-188.672-174.131-409.6-174.131c-222.106 0-409.6 35.84-409.6 175.36zM138.547 689.101c0 0.031 0 0.066 0 0.102 0 149.698 121.354 271.053 271.053 271.053s271.053-121.354 271.053-271.053c0-149.698-121.354-271.053-271.053-271.053v0c-0.305-0.001-0.665-0.002-1.026-0.002-149.133 0-270.029 120.896-270.029 270.029 0 0.325 0.001 0.649 0.002 0.974v-0.050z" />
<glyph unicode="&#xe924;" d="M512.109 960h-0.255c-0.036 0-0.078 0-0.12 0-282.589 0-511.672-229.083-511.672-511.672 0-112.852 36.535-217.172 98.422-301.775l-1.006 1.443-63.795-190.293 196.629 62.921c79.28-52.893 176.751-84.405 281.581-84.405 282.709 0 511.891 229.181 511.891 511.891 0 282.633-229.058 511.767-511.662 511.891h-0.012z" />
<glyph unicode="&#xe925;" d="M810.075 236.988c-20.918-37.33-56.937-64.077-99.566-72.103l-0.897-0.14c-26.763-5.68-61.683-10.232-179.333 38.525-150.458 62.339-247.352 215.236-254.889 225.14-33.457 42.536-55.503 95.489-60.727 153.295l-0.083 1.132c-0.042 1.383-0.066 3.011-0.066 4.644 0 47.358 20.14 90.013 52.323 119.865l0.104 0.096c12.993 11.361 30.114 18.289 48.853 18.289 1.234 0 2.461-0.030 3.68-0.089l-0.172 0.007c6.336 0 12.016-0.328 17.15-0.583 15.038-0.655 22.576-1.529 32.517-25.27 12.344-29.749 42.421-103.23 46.026-110.768 2.843-4.547 4.53-10.070 4.53-15.987 0-4.231-0.862-8.26-2.42-11.922l0.075 0.199c-4.438-9.044-9.978-16.795-16.579-23.498l0.011 0.011c-7.537-8.703-14.565-15.366-22.285-24.688-6.918-8.12-14.565-16.823-6.008-31.861 23.463-39.526 51.005-73.489 82.769-102.966l0.288-0.265c33.826-31.030 73.714-56.105 117.598-73.185l2.564-0.878c4.064-1.975 8.84-3.13 13.887-3.13 8.6 0 16.417 3.354 22.214 8.825l-0.016-0.015c13.271 15.627 26.433 32.896 38.676 50.841l1.378 2.139c5.085 8.377 14.157 13.888 24.517 13.888 4.441 0 8.645-1.013 12.395-2.82l-0.171 0.074c13.837-4.806 86.99-40.964 101.956-48.465s24.943-11.142 28.62-17.478c1.020-6.056 1.603-13.034 1.603-20.148 0-18.337-3.873-35.77-10.845-51.525l0.321 0.814z" />
</font>
</defs>
</svg>
