<svg xmlns="http://www.w3.org/2000/svg" xmlns:xlink="http://www.w3.org/1999/xlink" width="18" height="13" viewBox="0 0 18 13">
  <defs>
    <clipPath id="clip-path">
      <rect width="18" height="13" fill="none"/>
    </clipPath>
    <clipPath id="clip-path-2">
      <path id="Shape" d="M1.707,6.293A1,1,0,0,0,.293,7.707l5,5a1,1,0,0,0,1.414,0l11-11A1,1,0,0,0,16.293.293L6,10.586Z" fill="#fff"/>
    </clipPath>
    <clipPath id="clip-path-3">
      <rect width="24" height="24" fill="none"/>
    </clipPath>
  </defs>
  <g id="check-2" clip-path="url(#clip-path)">
    <path id="Shape-2" data-name="Shape" d="M1.707,6.293A1,1,0,0,0,.293,7.707l5,5a1,1,0,0,0,1.414,0l11-11A1,1,0,0,0,16.293.293L6,10.586Z" fill="#fff"/>
    <g clip-path="url(#clip-path-2)">
      <g id="COLOR_black" data-name="COLOR/ black" transform="translate(-3 -6)" clip-path="url(#clip-path-3)">
        <rect id="Rectangle" width="24" height="24" fill="#fff"/>
      </g>
    </g>
  </g>
</svg>
