<svg xmlns="http://www.w3.org/2000/svg" width="30.202" height="20.764" viewBox="0 0 30.202 20.764">
  <g id="email" transform="translate(0 -80)">
    <path id="Path_5321" data-name="Path 5321" d="M28.314,100.764H1.888A1.888,1.888,0,0,1,0,98.876V81.888A1.888,1.888,0,0,1,1.888,80H28.314A1.888,1.888,0,0,1,30.2,81.888V98.876A1.888,1.888,0,0,1,28.314,100.764Z" fill="#1e88e5"/>
    <path id="Path_5322" data-name="Path 5322" d="M28.314,236.27H1.888A1.867,1.867,0,0,1,0,234.382a.945.945,0,0,1,.385-.761l14.157-9.438a.944.944,0,0,1,1.117,0l14.157,9.438a.945.945,0,0,1,.385.761A1.867,1.867,0,0,1,28.314,236.27Z" transform="translate(0 -135.506)" fill="#2196f3"/>
    <path id="Path_5323" data-name="Path 5323" d="M28.314,80H1.888A1.867,1.867,0,0,0,0,81.888a.945.945,0,0,0,.385.761L14.55,92.817a.944.944,0,0,0,1.1,0L29.815,82.648a.942.942,0,0,0,.387-.761A1.867,1.867,0,0,0,28.314,80Z" fill="#64b5f6"/>
  </g>
</svg>
