<svg id="google-plus-white" xmlns="http://www.w3.org/2000/svg" width="24.558" height="24.558" viewBox="0 0 24.558 24.558">
  <g id="Group_6" data-name="Group 6">
    <g id="Group_5" data-name="Group 5">
      <path id="Path_12" data-name="Path 12" d="M18.029,28.646c-.08-.053-.161-.11-.247-.168A2.8,2.8,0,0,0,17,28.359h-.033c-1.243,0-2.334.752-2.334,1.611a1.917,1.917,0,0,0,2.126,1.665c1.572,0,2.369-.543,2.369-1.611a1.338,1.338,0,0,0-.037-.311C18.985,29.3,18.6,29.04,18.029,28.646Z" transform="translate(-7.395 -14.332)" fill="#fff"/>
      <path id="Path_13" data-name="Path 13" d="M17.926,18.4h0a.952.952,0,0,0,.742-.34,1.95,1.95,0,0,0,.36-1.522,2.155,2.155,0,0,0-1.721-2h-.032a.953.953,0,0,0-.734.339,1.89,1.89,0,0,0-.349,1.49c.141,1.08.931,2.014,1.721,2.038Z" transform="translate(-8.173 -7.345)" fill="#fff"/>
      <path id="Path_14" data-name="Path 14" d="M12.279,0A12.279,12.279,0,1,0,24.558,12.279,12.293,12.293,0,0,0,12.279,0ZM10.864,18.258a5.379,5.379,0,0,1-1.493.2,6.842,6.842,0,0,1-1.676-.2,3.251,3.251,0,0,1-2.12-1.371,1.744,1.744,0,0,1-.228-.859,2.182,2.182,0,0,1,.219-.93A3.987,3.987,0,0,1,9.22,13.113h.046a1.45,1.45,0,0,1-.2-.728A1.548,1.548,0,0,1,9.121,12,2.932,2.932,0,0,1,6.136,9.061,3.137,3.137,0,0,1,8.4,6.305,3.689,3.689,0,0,1,9.6,6.1h3.651a.287.287,0,0,1,.169.519l-.817.591a.292.292,0,0,1-.169.053h-.292a2.842,2.842,0,0,1,.6,1.823A2.719,2.719,0,0,1,11.6,11.216c-.569.443-.591.565-.591.818a2.425,2.425,0,0,0,.84.9,2.824,2.824,0,0,1,1.4,2.606A2.976,2.976,0,0,1,10.864,18.258ZM19.109,12a.287.287,0,0,1-.287.287H16.747v2.076a.287.287,0,0,1-.286.287h-.591a.287.287,0,0,1-.288-.287V12.283H13.509A.286.286,0,0,1,13.222,12v-.59a.288.288,0,0,1,.287-.288h2.073V9.044a.287.287,0,0,1,.288-.287h.591a.287.287,0,0,1,.286.287v2.074h2.074a.287.287,0,0,1,.287.287V12Z" fill="#fff"/>
    </g>
  </g>
</svg>
