<svg xmlns="http://www.w3.org/2000/svg" width="15.91" height="15.91" viewBox="0 0 15.91 15.91">
  <g id="instagram" transform="translate(0 0)">
    <path id="Path_5154" data-name="Path 5154" d="M15.862,4.675a5.84,5.84,0,0,0-.37-1.931,3.9,3.9,0,0,0-.918-1.409A3.9,3.9,0,0,0,13.166.417,5.839,5.839,0,0,0,11.235.048C10.386.009,10.115,0,7.955,0S5.523.009,4.675.048a5.841,5.841,0,0,0-1.931.37,3.9,3.9,0,0,0-1.409.918A3.9,3.9,0,0,0,.417,2.744,5.84,5.84,0,0,0,.048,4.675C.009,5.523,0,5.794,0,7.955s.009,2.432.048,3.28a5.839,5.839,0,0,0,.37,1.931,3.9,3.9,0,0,0,.918,1.409,3.9,3.9,0,0,0,1.409.918,5.837,5.837,0,0,0,1.931.37c.848.039,1.119.048,3.28.048s2.431-.009,3.28-.048a5.838,5.838,0,0,0,1.931-.37,4.067,4.067,0,0,0,2.326-2.326,5.838,5.838,0,0,0,.37-1.931c.039-.848.048-1.119.048-3.28s-.009-2.431-.048-3.28ZM14.43,11.17a4.4,4.4,0,0,1-.274,1.477,2.634,2.634,0,0,1-1.51,1.51,4.4,4.4,0,0,1-1.477.274c-.839.038-1.09.046-3.215.046s-2.376-.008-3.215-.046a4.4,4.4,0,0,1-1.477-.274,2.465,2.465,0,0,1-.915-.6,2.464,2.464,0,0,1-.6-.915A4.4,4.4,0,0,1,1.48,11.17c-.038-.839-.046-1.09-.046-3.215s.008-2.376.046-3.215a4.4,4.4,0,0,1,.274-1.477,2.466,2.466,0,0,1,.6-.915,2.463,2.463,0,0,1,.915-.6A4.4,4.4,0,0,1,4.74,1.48c.839-.038,1.09-.046,3.215-.046h0c2.124,0,2.376.008,3.215.046a4.4,4.4,0,0,1,1.477.274,2.467,2.467,0,0,1,.915.6,2.463,2.463,0,0,1,.6.915A4.4,4.4,0,0,1,14.43,4.74c.038.839.046,1.09.046,3.215s-.008,2.376-.046,3.215Zm0,0" transform="translate(0)" fill="#c32aa3"/>
    <path id="Path_5155" data-name="Path 5155" d="M128.624,124.539a4.085,4.085,0,1,0,4.085,4.085A4.085,4.085,0,0,0,128.624,124.539Zm0,6.737a2.652,2.652,0,1,1,2.652-2.652A2.652,2.652,0,0,1,128.624,131.276Zm0,0" transform="translate(-120.669 -120.669)" fill="#c32aa3"/>
    <path id="Path_5156" data-name="Path 5156" d="M363.839,89.58a.955.955,0,1,1-.955-.955A.955.955,0,0,1,363.839,89.58Zm0,0" transform="translate(-350.683 -85.871)" fill="#c32aa3"/>
  </g>
</svg>
