<svg xmlns="http://www.w3.org/2000/svg" width="27.387" height="27.015" viewBox="0 0 27.387 27.015">
  <path id="linkedin" d="M545,8389.55V8400h-5.872v-9.75c0-2.45-.846-4.12-2.971-4.12a3.232,3.232,0,0,0-3.011,2.21,4.326,4.326,0,0,0-.2,1.48V8400H527.08s.078-16.51,0-18.22h5.867v2.58c-.008.02-.025.04-.033.06h.033v-.06a5.807,5.807,0,0,1,5.29-3.01C542.1,8381.35,545,8383.95,545,8389.55Zm-24.062-16.56a3.153,3.153,0,1,0-.075,6.3h.037a3.154,3.154,0,1,0,.035-6.3ZM517.964,8400h5.868v-18.22h-5.868Z" transform="translate(-517.613 -8372.985)" fill="#0300b1" fill-rule="evenodd"/>
</svg>
