<svg xmlns="http://www.w3.org/2000/svg" width="21.703" height="28.122" viewBox="0 0 21.703 28.122">
  <g id="map" transform="translate(-58.43)">
    <path id="Path_5324" data-name="Path 5324" d="M69.282,0A10.864,10.864,0,0,0,58.43,10.851a14.855,14.855,0,0,0,1.673,6.52,27.587,27.587,0,0,0,3.642,5.466,38.005,38.005,0,0,0,5.283,5.2.412.412,0,0,0,.5,0,38,38,0,0,0,5.283-5.2,27.592,27.592,0,0,0,3.642-5.466,14.855,14.855,0,0,0,1.673-6.52A10.864,10.864,0,0,0,69.282,0Zm0,7.1a3.752,3.752,0,1,1-3.752,3.752A3.756,3.756,0,0,1,69.282,7.1Z" transform="translate(0)" fill="#ff4a4a"/>
    <path id="Path_5325" data-name="Path 5325" d="M235.271,0a10.909,10.909,0,0,0-1.2.067,10.867,10.867,0,0,1,9.647,10.784,14.855,14.855,0,0,1-1.673,6.52,27.586,27.586,0,0,1-3.642,5.466,39.809,39.809,0,0,1-4.331,4.407c.559.485.914.761.953.791a.412.412,0,0,0,.5,0,38,38,0,0,0,5.283-5.2,27.592,27.592,0,0,0,3.642-5.466,14.856,14.856,0,0,0,1.673-6.52A10.864,10.864,0,0,0,235.271,0Z" transform="translate(-165.989)" fill="#e7343f"/>
  </g>
</svg>
