<svg xmlns="http://www.w3.org/2000/svg" width="22.026" height="20.974" viewBox="0 0 22.026 20.974">
  <g id="message_icon" data-name="message icon" transform="translate(0.013 -0.013)">
    <path id="Path_139" data-name="Path 139" d="M18.308,1.026H3.692a2.662,2.662,0,0,0-1.9.812A2.8,2.8,0,0,0,1,3.789v9.474a2.807,2.807,0,0,0,.791,1.952,2.665,2.665,0,0,0,1.9.811H5.615v3.948l4.506-3.856a.379.379,0,0,1,.247-.092h7.94a2.665,2.665,0,0,0,1.9-.811A2.807,2.807,0,0,0,21,13.263V3.789a2.8,2.8,0,0,0-.791-1.951,2.662,2.662,0,0,0-1.9-.812Z" fill="none" stroke="#01003c" stroke-linejoin="round" stroke-width="2.026"/>
    <path id="Path_140" data-name="Path 140" d="M6.385,10.105A1.58,1.58,0,1,0,4.846,8.527,1.559,1.559,0,0,0,6.385,10.105Z" fill="#01003c"/>
    <path id="Path_141" data-name="Path 141" d="M11,10.105A1.58,1.58,0,1,0,9.462,8.527,1.559,1.559,0,0,0,11,10.105Z" fill="#01003c"/>
    <path id="Path_142" data-name="Path 142" d="M15.615,10.105a1.58,1.58,0,1,0-1.538-1.578A1.559,1.559,0,0,0,15.615,10.105Z" fill="#01003c"/>
  </g>
</svg>
