<svg xmlns="http://www.w3.org/2000/svg" width="20.858" height="26.75" viewBox="0 0 20.858 26.75">
  <path id="pinterest" d="M474.475,8388.47c1.3-2.29-.416-2.79-.685-4.45-1.1-6.77,7.829-11.39,12.5-6.66,3.236,3.28,1.105,13.35-4.11,12.3-5-.99,2.446-9.02-1.54-10.59-3.241-1.28-4.962,3.91-3.425,6.49-.9,4.44-2.842,8.63-2.057,14.19,2.547-1.84,3.407-5.38,4.111-9.06,1.281.78,1.965,1.58,3.6,1.71,6.02.47,9.385-6,8.56-11.96-.73-5.29-6.012-7.98-11.647-7.35-4.454.5-8.895,4.09-9.079,9.23C470.592,8385.45,471.484,8387.81,474.475,8388.47Z" transform="translate(-470.694 -8373)" fill="#d92828" fill-rule="evenodd"/>
</svg>
