<svg xmlns="http://www.w3.org/2000/svg" width="16.131" height="15.369" viewBox="0 0 16.131 15.369">
  <g id="star" transform="translate(0.513 0.5)">
    <path id="Star-2" data-name="Star" d="M12.023,8.927a.831.831,0,0,0-.241.733l.671,3.716a.816.816,0,0,1-.34.816.831.831,0,0,1-.884.06L7.885,12.507a.854.854,0,0,0-.378-.1H7.3a.613.613,0,0,0-.2.068L3.753,14.229a.882.882,0,0,1-.536.083.839.839,0,0,1-.672-.96l.672-3.716A.845.845,0,0,0,2.976,8.9L.248,6.253a.815.815,0,0,1-.2-.853.848.848,0,0,1,.671-.566L4.47,4.289a.84.84,0,0,0,.665-.46L6.789.438a.786.786,0,0,1,.151-.2L7.008.181a.507.507,0,0,1,.122-.1l.082-.03L7.34,0h.318a.845.845,0,0,1,.665.453L10,3.829a.839.839,0,0,0,.627.46l3.754.545a.856.856,0,0,1,.687.566.82.82,0,0,1-.219.853Z" transform="translate(0)" fill="#2400aa" stroke="rgba(0,0,0,0)" stroke-width="1"/>
  </g>
</svg>
