<svg xmlns="http://www.w3.org/2000/svg" width="31.097" height="26.262" viewBox="0 0 31.097 26.262">
  <path id="twitter" d="M445.743,8373.55a12.542,12.542,0,0,1-4.054,1.61,6.251,6.251,0,0,0-4.655-2.09,6.5,6.5,0,0,0-6.38,6.62,7,7,0,0,0,.166,1.52,17.914,17.914,0,0,1-13.148-6.93,6.81,6.81,0,0,0,1.974,8.849,6.318,6.318,0,0,1-2.889-.83v.081a6.578,6.578,0,0,0,5.116,6.5,6.222,6.222,0,0,1-1.68.23,5.9,5.9,0,0,1-1.2-.12,6.413,6.413,0,0,0,5.957,4.61,12.487,12.487,0,0,1-7.921,2.841,12.8,12.8,0,0,1-1.525-.092,17.577,17.577,0,0,0,9.781,2.982c11.733,0,18.149-10.111,18.149-18.871l-.021-.86a13.08,13.08,0,0,0,3.188-3.43,12.342,12.342,0,0,1-3.662,1.05,6.619,6.619,0,0,0,2.8-3.671Z" transform="translate(-415.504 -8373.07)" fill="#36cfff" fill-rule="evenodd"/>
</svg>
