<svg id="whatsapp" xmlns="http://www.w3.org/2000/svg" width="28.122" height="28.122" viewBox="0 0 28.122 28.122">
  <path id="Path_5319" data-name="Path 5319" d="M14.064,0h-.007A14.052,14.052,0,0,0,2.677,22.3L.925,27.526l5.4-1.728A14.058,14.058,0,1,0,14.064,0Z" transform="translate(0)" fill="#4caf50"/>
  <path id="Path_5320" data-name="Path 5320" d="M123.619,130.513a3.968,3.968,0,0,1-2.759,1.984c-.735.156-1.694.281-4.925-1.058-4.132-1.712-6.793-5.911-7-6.183a8.031,8.031,0,0,1-1.67-4.241,4.489,4.489,0,0,1,1.438-3.422,2.043,2.043,0,0,1,1.438-.5c.174,0,.33.009.471.016.413.018.62.042.893.694.339.817,1.165,2.835,1.264,3.042a.837.837,0,0,1,.06.761,2.43,2.43,0,0,1-.455.645c-.207.239-.4.422-.612.678-.19.223-.4.462-.165.875a12.48,12.48,0,0,0,2.281,2.835,10.337,10.337,0,0,0,3.3,2.034.889.889,0,0,0,.991-.156,17.018,17.018,0,0,0,1.1-1.455.785.785,0,0,1,1.009-.306c.38.132,2.389,1.125,2.8,1.331s.685.306.786.48A3.5,3.5,0,0,1,123.619,130.513Z" transform="translate(-101.372 -110.657)" fill="#fafafa"/>
</svg>
