<svg xmlns="http://www.w3.org/2000/svg" width="15.3" height="14.547" viewBox="0 0 15.3 14.547">
  <path id="star" d="M7.661.331,9.4,3.825a.6.6,0,0,0,.45.328l3.889.562a.6.6,0,0,1,.4.229.577.577,0,0,1-.064.774L11.25,8.443a.572.572,0,0,0-.169.526l.675,3.846a.59.59,0,0,1-.489.669.651.651,0,0,1-.387-.06L7.416,11.608a.582.582,0,0,0-.557,0L3.371,13.434a.609.609,0,0,1-.808-.248.6.6,0,0,1-.061-.375l.675-3.846a.591.591,0,0,0-.169-.525L.174,5.716a.589.589,0,0,1,0-.834l0,0a.682.682,0,0,1,.339-.167L4.4,4.15a.609.609,0,0,0,.45-.329L6.588.331a.59.59,0,0,1,.343-.3.6.6,0,0,1,.458.033A.615.615,0,0,1,7.661.331Z" transform="translate(0.5 0.503)" fill="none" stroke="#01003c" stroke-linecap="round" stroke-linejoin="round" stroke-miterlimit="10" stroke-width="1"/>
</svg>
